<svg xmlns="http://www.w3.org/2000/svg" viewBox="0 0 100 60"><g fill="none" fill-rule="evenodd"><path fill="#FFF" d="M0 0h100v60H0z"/><g fill-rule="nonzero"><path fill="#0079BE" d="M54.328 47.929c9.731.047 18.613-8.009 18.613-17.809 0-10.716-8.882-18.124-18.613-18.12h-8.375C36.106 11.996 28 19.406 28 30.12c0 9.802 8.106 17.856 17.953 17.809h8.375z"/><path fill="#FFF" d="M45.993 13.485c-8.999.003-16.29 7.363-16.293 16.447.003 9.083 7.294 16.443 16.293 16.446 9-.003 16.294-7.363 16.295-16.446-.001-9.084-7.294-16.444-16.295-16.447zM35.666 29.932a10.438 10.438 0 0 1 6.63-9.728v19.455a10.434 10.434 0 0 1-6.63-9.727zm14.023 9.731v-19.46a10.433 10.433 0 0 1 6.634 9.73 10.436 10.436 0 0 1-6.634 9.73z"/><path fill="#0079BE" d="M54.328 47.929c9.731.047 18.613-8.009 18.613-17.809 0-10.716-8.882-18.124-18.613-18.12h-8.375C36.106 11.996 28 19.406 28 30.12c0 9.802 8.106 17.856 17.953 17.809h8.375z"/><path fill="#FFF" d="M45.993 13.485c-8.999.003-16.29 7.363-16.293 16.447.003 9.083 7.294 16.443 16.293 16.446 9-.003 16.294-7.363 16.295-16.446-.001-9.084-7.294-16.444-16.295-16.447zM35.666 29.932a10.438 10.438 0 0 1 6.63-9.728v19.455a10.434 10.434 0 0 1-6.63-9.727zm14.023 9.731v-19.46a10.433 10.433 0 0 1 6.634 9.73 10.436 10.436 0 0 1-6.634 9.73z"/></g></g></svg>