<svg xmlns="http://www.w3.org/2000/svg" viewBox="0 0 100 60"><g fill="none" fill-rule="evenodd"><path fill="#FFF" d="M0 0h100v60H0z"/><path fill="#54B230" d="M62.738 31.734h3.535a2.01 2.01 0 0 1 .175.01 2.984 2.984 0 0 1 .21.03l.023.004a1.435 1.435 0 0 1 .293.1 1.542 1.542 0 0 1 .584.46 1.543 1.543 0 0 1 .292.616 1.669 1.669 0 0 1-.176 1.188 1.53 1.53 0 0 1-.525.538 1.541 1.541 0 0 1-.468.192l-.023.005a.746.746 0 0 1-.093.016 2.485 2.485 0 0 1-.292.024h-3.535v-3.183zm4.703-3.604a1.578 1.578 0 0 1-.117 1.01 1.383 1.383 0 0 1-.584.604 1.457 1.457 0 0 1-.467.165l-.014.002a.97.97 0 0 1-.103.013 3.246 3.246 0 0 1-.234.014h-3.184v-2.937h3.243a2.5 2.5 0 0 1 .233.02l.045.005.014.003a1.469 1.469 0 0 1 .35.107 1.61 1.61 0 0 1 .292.172 1.457 1.457 0 0 1 .292.298 1.396 1.396 0 0 1 .234.524zm7.243-15.234h.024V43.07a6.086 6.086 0 0 1-.433 2.245 5.921 5.921 0 0 1-.642 1.19 6.22 6.22 0 0 1-.117.162l-.059.076a6.315 6.315 0 0 1-.175.217l-.058.069-.059.065a6.125 6.125 0 0 1-.116.127l-.059.06-.058.06-.059.057-.058.056a6.19 6.19 0 0 1-.292.258l-.059.048-.058.047-.058.045-.059.044-.058.043-.059.043-.058.04-.059.041-.058.039-.058.038-.059.037a5.61 5.61 0 0 1-.117.072l-.058.035a6.32 6.32 0 0 1-.058.033l-.059.033-.058.032-.059.03-.058.031-.059.03-.058.028-.058.028-.059.027-.058.027-.059.025-.058.025-.058.024-.059.024-.058.023-.059.022-.058.021-.059.02c-.019.007-.038.015-.058.021l-.058.019-.059.019-.058.018-.059.017-.058.017-.058.016-.059.016-.058.014-.059.015-.058.014-.059.012-.058.013-.058.012-.059.01-.058.012-.059.01-.058.009-.058.009-.059.008-.058.008-.059.007-.058.006-.058.006-.059.006-.058.005-.059.004-.058.004c-.02 0-.04.002-.059.003l-.058.002-.058.002-.059.002h-.058l-.059.001H59.78V36.802h9.472l.058-.002.058-.001c.02 0 .04-.002.059-.003l.058-.002.059-.004.058-.004.058-.004.059-.006.058-.005.059-.007.058-.007.058-.008.059-.008.058-.01.059-.01.058-.01.059-.01.058-.013.058-.012a5.42 5.42 0 0 0 .059-.014l.058-.014a4.487 4.487 0 0 0 .234-.064l.058-.018a3.753 3.753 0 0 0 .176-.06l.058-.023.058-.022.059-.024a3.723 3.723 0 0 0 .993-.62 2.963 2.963 0 0 0 .409-.456 2.697 2.697 0 0 0 .409-.882 2.718 2.718 0 0 0 .084-.692 2.73 2.73 0 0 0-.084-.671 2.467 2.467 0 0 0-.526-.998 2.788 2.788 0 0 0-.526-.478 3.401 3.401 0 0 0-.584-.339 3.765 3.765 0 0 0-.175-.076l-.059-.024a4.424 4.424 0 0 0-.058-.022l-.058-.021a5.181 5.181 0 0 0-.234-.077l-.059-.017a4.512 4.512 0 0 0-.35-.086l-.058-.012-.059-.011-.058-.01a4.465 4.465 0 0 0-.059-.01l-.058-.01a4.6 4.6 0 0 0-.059-.008l-.058-.008-.058-.008-.059-.006-.058-.006-.059-.006-.058-.005-.054-.004v-.07l.054-.008.058-.01.059-.01.058-.01.059-.013.058-.013a4.14 4.14 0 0 0 .643-.201 3.365 3.365 0 0 0 .7-.395 2.732 2.732 0 0 0 .818-.986 2.54 2.54 0 0 0 .234-.843 2.747 2.747 0 0 0 0-.573 2.674 2.674 0 0 0-.175-.717 2.38 2.38 0 0 0-.584-.848 2.577 2.577 0 0 0-.35-.282 3.137 3.137 0 0 0-.527-.292 4.006 4.006 0 0 0-.467-.173l-.058-.017a4.311 4.311 0 0 0-.117-.032l-.059-.014a4.3 4.3 0 0 0-.116-.028l-.059-.012-.058-.012-.059-.01-.058-.01-.058-.01-.059-.01-.058-.008-.059-.007-.058-.007-.058-.006-.059-.006-.058-.005-.059-.005-.058-.004-.059-.003-.023-.002-.035-.002-.058-.003-.059-.004-.058-.003-.059-.002-.058-.003-.059-.002-.058-.002-.058-.001h-.059l-.032-.001h-8.564v-6.267a6.044 6.044 0 0 1 .593-2.608 5.77 5.77 0 0 1 .35-.629 5.771 5.771 0 0 1 .118-.176l.058-.083a6.372 6.372 0 0 1 .117-.158l.058-.076.059-.072a5.443 5.443 0 0 1 .116-.14l.059-.065.058-.065a6.474 6.474 0 0 1 .176-.184l.058-.057.058-.057.059-.054.058-.054.059-.051a6.473 6.473 0 0 1 .233-.196l.059-.045.058-.045a6.316 6.316 0 0 1 .117-.086l.058-.041a5.44 5.44 0 0 1 .059-.04l.058-.04.059-.039.058-.037.058-.036.059-.036.058-.035.059-.034.058-.033.059-.032.058-.031.058-.03.059-.03.058-.03.059-.027c.019-.01.039-.018.058-.027l.058-.027.059-.026.058-.025.059-.024.058-.024.059-.023.058-.022.058-.022.059-.02.058-.021.059-.02.058-.018.058-.019.059-.017.058-.017.059-.016.058-.016.059-.015.058-.014.058-.014.059-.013.058-.013.059-.012.058-.011.058-.011.059-.01.058-.01.059-.009.058-.008.059-.008.058-.007.058-.007.059-.006.058-.006.059-.005.058-.004.058-.004c.02 0 .04-.002.059-.003l.058-.003.059-.002.058-.002h.059l.058-.001h8.879z"/><path fill="#006CB9" d="M26.292 33.835V18.93a6.043 6.043 0 0 1 .592-2.605 6.043 6.043 0 0 1 .466-.804l.058-.084.059-.08.058-.078.058-.075.059-.073a5.8 5.8 0 0 1 .116-.14l.059-.065a5.31 5.31 0 0 1 .058-.065l.058-.063a5.797 5.797 0 0 1 .117-.12l.058-.058.058-.056.059-.055.058-.053.058-.052.059-.05.058-.05a5.611 5.611 0 0 1 .292-.23l.058-.042a5.532 5.532 0 0 1 .233-.16l.058-.037.059-.036.058-.036.058-.035.059-.034.058-.032.058-.033.059-.03.058-.032.058-.03.059-.028c.019-.01.038-.02.058-.028l.058-.028.058-.027.059-.025.058-.025.058-.025.059-.023.058-.023.058-.022.059-.023.058-.02.058-.02.059-.02.058-.019.058-.018.059-.018.058-.017.058-.016.059-.016.058-.015.058-.014.058-.014a.7.7 0 0 1 .059-.013l.058-.013.058-.012.059-.011.058-.012.058-.01.059-.01c.02-.002.038-.006.058-.009l.058-.008.059-.008.058-.007.058-.007.059-.006.058-.006.058-.005.058-.004.059-.004.058-.004.058-.002.059-.003.058-.002h.058l.059-.001h8.913v30.172a6.077 6.077 0 0 1-.341 2 5.955 5.955 0 0 1-.992 1.777l-.058.072a6.084 6.084 0 0 1-.117.136l-.058.065-.058.063-.059.062a6.157 6.157 0 0 1-.233.23l-.058.054-.059.052-.058.051-.058.05-.058.049-.059.046-.058.047-.058.044-.059.045-.058.042-.058.042-.059.04-.058.04-.058.039-.059.038c-.019.013-.038.024-.058.036l-.058.037-.059.034-.058.035c-.02.01-.039.022-.058.033a5.272 5.272 0 0 1-.117.064l-.058.03-.058.03-.059.03-.058.028-.058.027-.059.028-.058.025-.058.026-.059.025-.058.023-.058.024-.059.022-.058.022-.058.02-.058.021-.059.02-.058.02c-.02.005-.039.012-.058.018l-.059.017-.058.018-.058.016-.059.016-.058.016-.058.014-.059.014-.058.014-.058.012-.059.013-.058.011-.058.011-.058.01-.059.01-.058.01-.058.008-.059.008-.058.008-.058.007-.059.006-.058.006-.058.005-.059.005-.058.004-.058.004-.059.003-.058.002-.058.002-.058.001h-.059l-.054.002h-8.876V36.386l.125.033.058.014.059.014.058.014.058.014.059.014.058.013.058.013.059.013.058.013.058.012.059.013.058.012.058.012.058.012.059.012.058.011.058.012.059.011.058.011.058.011.059.011.058.011.058.01.059.011.058.01.058.01.059.01.058.01.058.01.058.01.059.01.058.01.058.008.059.01.058.009.058.009.059.008.058.009.058.008.059.009.058.008.058.008.059.008.058.008.058.008.058.007.059.008.058.007.058.008.059.007.058.007.058.007.059.006.058.007.058.007.059.006.058.006.058.006.058.006.059.006.058.006.058.006.059.005.058.005.058.006.059.005.058.005.058.005.059.004.058.005.058.004.059.005.058.004.058.004.059.004.058.004.058.004.058.003.059.004.058.003.058.003.059.003.058.003.058.003.059.003.058.003.058.002.059.002.058.002.058.002.059.002.058.002.058.002.058.001.059.002h.058l.058.002h.059l.058.002h.117l.058.001h.408l.058-.002h.059l.058-.002.058-.001.059-.002.058-.001.058-.002.059-.002.058-.002.058-.002.059-.003.058-.003.058-.002.059-.003.058-.004.058-.003.058-.003.059-.004.058-.005.058-.004.059-.004.058-.005.058-.005.059-.005.058-.005.058-.005.059-.006.058-.006.058-.006.058-.006.059-.007.058-.007.058-.007.059-.007.058-.008.058-.008.059-.008.058-.009.058-.008.059-.01.058-.008.058-.01.059-.01.058-.01.058-.01.058-.011.059-.011.058-.012c.02-.003.039-.008.058-.012l.059-.011.058-.013.058-.013.059-.013.058-.013.058-.014.059-.014.058-.015.058-.015.059-.016.058-.015.058-.017.058-.016.059-.017.058-.018.058-.018.059-.019.058-.019.058-.02.059-.02.058-.02.058-.022.059-.021.058-.023.058-.023.059-.023.058-.025.058-.024.058-.026.059-.027.058-.027c.02-.009.04-.018.058-.028l.059-.028.058-.03.058-.03.059-.03a5.522 5.522 0 0 0 .175-.1l.058-.035.058-.036.059-.037.058-.039.058-.039c.02-.014.04-.027.058-.041l.059-.042.058-.044a4.315 4.315 0 0 0 .175-.14l.058-.05.059-.053.058-.054a3.82 3.82 0 0 0 .117-.116l.058-.06.058-.065a3.761 3.761 0 0 0 .583-.875 3.885 3.885 0 0 0 .234-.604 4.458 4.458 0 0 0 .116-.489 5.653 5.653 0 0 0 .088-1.017v-7.002h-5.161L34.77 32.2a3.673 3.673 0 0 1-.073.717 3.109 3.109 0 0 1-.175.558 2.766 2.766 0 0 1-.35.595 2.59 2.59 0 0 1-.524.507 2.808 2.808 0 0 1-.7.374 3.454 3.454 0 0 1-.292.094l-.058.016a3.549 3.549 0 0 1-.35.072l-.058.01a4.349 4.349 0 0 1-.117.015l-.058.006-.058.006-.059.005a4.478 4.478 0 0 1-.116.007l-.058.003-.059.002h-.058l-.058.002h-.117l-.058-.002h-.059l-.058-.002-.058-.002-.059-.003-.058-.002-.058-.003-.059-.004-.058-.004-.058-.004-.058-.004-.059-.005-.058-.005-.058-.006-.059-.006-.058-.006-.058-.007-.059-.007-.058-.007-.058-.008-.059-.008-.058-.008-.058-.009-.059-.01-.058-.009-.058-.01-.059-.01-.058-.01-.058-.01-.058-.012-.059-.011-.058-.012-.058-.012-.059-.013-.058-.012-.058-.013-.059-.014-.058-.014-.058-.014-.059-.014-.058-.015-.058-.015-.058-.015-.059-.016-.058-.016-.058-.016-.059-.017-.058-.017-.058-.017-.059-.017-.058-.018-.058-.018-.059-.019-.058-.018-.058-.02-.059-.019-.058-.02-.058-.02-.058-.02-.059-.02-.058-.02-.058-.022-.059-.021-.058-.022-.058-.022-.059-.022-.058-.022-.058-.023-.059-.023-.058-.023-.058-.024-.059-.024-.058-.024-.058-.024-.058-.025-.059-.025-.058-.025-.058-.026-.059-.025-.058-.026-.058-.026-.059-.027-.058-.027-.058-.027-.059-.027-.058-.027-.125-.06z"/><path fill="#E10238" d="M43.16 26.728a5.484 5.484 0 0 0-.124.104v-7.9a6.045 6.045 0 0 1 .591-2.606 6.034 6.034 0 0 1 .467-.804l.058-.084.059-.08a6.14 6.14 0 0 1 .058-.077l.058-.076.059-.072a5.872 5.872 0 0 1 .116-.14l.058-.066.059-.065a5.93 5.93 0 0 1 .233-.24l.058-.057.059-.054.058-.054.058-.052.059-.05.058-.05a7.026 7.026 0 0 1 .35-.271 7.067 7.067 0 0 1 .175-.122l.058-.038.058-.038.059-.036.058-.036.058-.034.059-.035.058-.032.058-.033.059-.03.058-.031.058-.03.059-.029.058-.028.058-.027.058-.027.059-.026.058-.025.058-.024.059-.024.058-.023.058-.022.059-.022.058-.02.058-.021.059-.02.058-.019.058-.018.059-.017.058-.018.058-.016.059-.016.058-.015.058-.014.058-.014.059-.013.058-.013.058-.012.059-.011.058-.011.058-.01.059-.01.058-.01.058-.008.059-.008.058-.007.058-.007.059-.006.058-.006.058-.005.059-.004.058-.004.058-.004.058-.002.059-.003.058-.002h.058l.059-.001h8.914v30.172a6.071 6.071 0 0 1-.342 2 6.13 6.13 0 0 1-.525 1.112 5.86 5.86 0 0 1-.116.184c-.02.03-.039.06-.059.088a6.314 6.314 0 0 1-.291.393l-.059.072-.058.069-.058.066-.059.066-.058.063-.058.062-.058.06a6.02 6.02 0 0 1-.175.17l-.059.054-.058.052-.058.051-.059.05-.058.048-.058.047-.059.047-.058.044-.058.044-.059.043-.058.042-.058.04-.059.04-.058.039-.058.038-.058.036-.059.037-.058.034-.058.035a6.26 6.26 0 0 1-.059.033l-.058.032-.058.032-.059.03-.058.03-.058.03-.059.028c-.019.01-.039.018-.058.027l-.058.027c-.02.01-.04.018-.059.026l-.058.026-.058.024-.059.024-.058.024-.058.022-.058.022-.059.02-.058.021-.058.02-.059.02c-.02.005-.039.012-.058.018l-.058.017-.059.018-.058.016-.058.016-.059.016-.058.014-.058.014-.059.014-.058.012-.058.013-.059.011-.058.011-.058.01-.058.01-.059.01-.058.008-.058.008-.059.008-.058.007-.058.006-.059.006-.058.005-.058.005-.059.004-.058.004-.058.003-.059.002-.058.002-.058.001-.059.001h-8.93V35.172a5.611 5.611 0 0 0 .242.195l.058.044.058.043a5.983 5.983 0 0 0 .117.083l.058.04.058.038.059.038.058.037.058.036.059.036.058.034.058.034.059.033.058.032.058.032.059.03.058.03.058.03.059.029.058.028.058.028.058.027.059.026.058.026.058.025.059.025.058.024.058.024.059.023.058.023.058.023.059.022.058.02.058.022.059.02.058.02.058.02.058.02.059.018.058.019.058.018.059.017.058.017.058.017.059.017.058.016.058.016.059.016.058.015.058.015.059.014.058.014.058.014.059.014.058.013.058.013.058.013.059.012.058.012.058.012.059.012.058.011.058.011.059.01.058.011.058.01.059.01.058.01.058.01.059.009.058.009.058.009.059.008.058.008.058.009.058.007.059.008.058.007.058.008.059.007.058.006.058.007.059.006.058.006.058.006.059.006.058.006.058.005.059.005.058.005.058.005.059.005.058.004.058.004.058.004.059.004.058.004.058.003.059.004.058.003.058.003.059.003.058.003.058.002.059.003.058.002.058.002.059.002.058.002.058.001.059.001.058.002.058.001h.058l.059.002h.058l.058.001h.175l.059.001h.175l.058-.001.058-.001h.059l.058-.002h.058l.059-.002.058-.001.058-.002.058-.001.059-.002.058-.002.058-.002.059-.002.058-.002.058-.002.059-.003.058-.002.028-.001.03-.002.059-.002.058-.003.058-.004.059-.003.058-.004.058-.004.058-.004.059-.004.058-.004.058-.005.059-.005.058-.005.058-.005.059-.005.058-.005.058-.006.059-.006.058-.006.058-.006.059-.006.058-.007.058-.006.059-.007.058-.007.058-.007.058-.007.059-.007.058-.008.058-.007.059-.008.058-.008.058-.008.059-.008.058-.008.058-.008.059-.009.058-.008.058-.01.059-.008.058-.009.058-.01.059-.008.058-.01.058-.01.058-.009.059-.01.058-.01.058-.01.059-.01.058-.01.058-.01.059-.01.058-.01.058-.012.059-.01.058-.011.058-.011.059-.011.058-.012.058-.01.059-.012.058-.012.058-.012.058-.011.059-.012.058-.012.058-.012.059-.013.058-.012.058-.013.059-.012.058-.013.058-.013.059-.013.058-.013.058-.013.059-.014.058-.013.058-.014.059-.014.058-.015v-2.552l-.058.029-.059.028-.058.029-.058.028-.059.028-.058.028-.058.027-.059.027-.058.027-.058.026-.059.027-.058.026-.058.025-.059.025-.058.025-.058.025-.059.025-.058.024-.058.024-.058.023-.059.023-.058.023-.058.022-.059.023-.058.022-.058.021-.059.021-.058.021-.058.02-.059.02-.058.02-.058.02-.059.02-.058.018-.058.019-.059.018-.058.018-.058.018-.058.017-.059.017-.058.017-.058.016-.059.016-.058.015-.058.015-.059.015-.058.015-.058.014-.059.014-.058.014-.058.013-.059.013-.058.013-.058.012-.059.012-.058.012-.058.011-.058.01-.059.012-.058.01-.058.01-.059.01-.058.01-.058.008-.059.01-.058.007-.058.009-.059.008-.058.007-.058.007-.059.007-.058.007-.058.006-.059.006-.058.006-.058.005-.058.005-.059.005-.035.003-.023.001-.058.004-.059.004-.058.003-.058.003-.059.003-.058.002-.058.002h-.059l-.058.002h-.233l-.058-.002-.059-.002-.058-.002-.058-.002-.059-.004-.058-.003-.058-.004-.059-.005-.058-.004-.058-.006-.059-.006-.058-.007-.058-.007-.059-.008-.058-.008-.058-.008-.059-.01-.058-.01-.058-.01-.058-.011-.059-.013-.058-.012-.058-.013-.059-.014-.058-.015-.058-.015-.059-.016a4.299 4.299 0 0 1-.058-.016l-.058-.018a5.135 5.135 0 0 1-.117-.037l-.058-.02-.059-.021-.058-.021-.058-.023-.059-.023-.058-.025-.058-.025-.058-.027-.059-.028a4.36 4.36 0 0 1-.116-.058l-.059-.031c-.02-.01-.039-.022-.058-.033a4.328 4.328 0 0 1-.175-.105.822.822 0 0 1-.058-.037l-.059-.04a3.6 3.6 0 0 1-.116-.084l-.059-.045a3.897 3.897 0 0 1-.058-.046l-.058-.048a3.469 3.469 0 0 1-.175-.16c-.02-.02-.04-.038-.058-.058a3.329 3.329 0 0 1-.292-.34 3.395 3.395 0 0 1-.35-.571 3.795 3.795 0 0 1-.233-.596 4.282 4.282 0 0 1-.117-.488 5.644 5.644 0 0 1 0-1.899 4.582 4.582 0 0 1 .175-.666 3.994 3.994 0 0 1 .233-.532 3.616 3.616 0 0 1 .409-.604 3.232 3.232 0 0 1 .35-.36c.019-.017.038-.035.058-.051l.058-.049a3.9 3.9 0 0 1 .233-.175l.059-.04.058-.037a3.579 3.579 0 0 1 .117-.072l.058-.033.058-.033.059-.03a4.399 4.399 0 0 1 .116-.06l.059-.027.058-.027.058-.025.058-.025.059-.023.058-.023.058-.021.059-.021.058-.02a5.155 5.155 0 0 1 .175-.055l.058-.016.059-.016c.019-.006.038-.01.058-.015l.058-.015.059-.014.058-.013.058-.012.059-.013.058-.01.058-.011.058-.01.059-.01.058-.008.058-.009.059-.007.058-.007.058-.007.059-.006.058-.006.058-.004.059-.005.058-.004.058-.004.059-.003.058-.002c.02 0 .039-.002.058-.003l.059-.001.058-.001.058-.001h.175l.058.001.059.001.058.002.058.002.059.003.058.003.058.003.059.004.058.004.023.001.035.003.059.005.058.005.058.005.058.005.059.006.058.007.058.006.059.007.058.007.058.007.059.008.058.008.058.009.059.008.058.01.058.009.059.01.058.01.058.01.059.01.058.01.058.012.058.012.059.012.058.012.058.012.059.013.058.013.058.014.059.014.058.014.058.014.059.015.058.015.058.016.059.016.058.016.058.017.059.016.058.018.058.017.058.018.059.018.058.019.058.019.059.02.058.019.058.02.059.02.058.02.058.021.059.022.058.021.058.022.059.023.058.022.058.023.059.023.058.024.058.024.058.024.059.025.058.025.058.025.059.025.058.026.058.026.059.027.058.027.058.027.059.027.058.028.058.027.059.029.058.028.058.029.059.029.058.029v-2.555l-.058-.014-.059-.014-.058-.014-.058-.013-.059-.014-.058-.013-.058-.013-.059-.013-.058-.013-.058-.013-.059-.013-.058-.012-.058-.012-.059-.013-.058-.012-.058-.012-.059-.012-.058-.011-.058-.012-.058-.012-.059-.011-.058-.011-.058-.012-.059-.01-.058-.012-.058-.01-.059-.011-.058-.011-.058-.01-.059-.01-.058-.011-.058-.01-.059-.01-.058-.01-.058-.01-.059-.01-.058-.01-.058-.009-.058-.01-.059-.009-.058-.009-.058-.009-.059-.009-.058-.008-.058-.009-.059-.008-.058-.009-.058-.008-.059-.008-.058-.008-.058-.008-.059-.007-.058-.008-.058-.007-.059-.008-.058-.007-.058-.007-.058-.007-.06-.007-.058-.007-.058-.006-.059-.006-.058-.007-.058-.005-.059-.006-.058-.006-.058-.005-.059-.005-.058-.006-.058-.005-.059-.004-.058-.005-.058-.004-.059-.004-.058-.004-.058-.004-.058-.004-.059-.003-.058-.003-.058-.003-.059-.003-.03-.002H51.5l-.058-.003-.059-.003-.058-.002-.058-.002-.059-.002-.058-.002-.058-.002-.059-.002-.058-.001-.058-.002h-.058l-.059-.002-.058-.001-.058-.001h-.059l-.058-.002h-.525l-.058.001-.059.001-.058.001-.058.001-.058.002-.059.001-.058.002-.058.002-.059.001-.058.002-.058.003-.059.002-.058.003-.058.002-.059.003-.058.003-.058.003-.059.004-.058.003-.058.004-.059.004-.058.004-.058.004-.058.005-.059.004-.058.005-.058.005-.059.005-.058.006-.058.005-.059.006-.058.006-.058.006-.059.006-.058.007-.058.007-.059.007-.058.007-.058.007-.059.008-.058.008-.058.008-.058.008-.059.009-.058.009-.058.008-.059.01-.058.01-.058.009-.059.01-.058.01-.058.01-.059.012-.058.01-.058.012-.059.011-.058.012-.058.012-.059.013-.058.012-.058.013-.058.014-.059.013-.058.014-.058.014-.059.015-.058.015-.058.015-.059.016-.058.015-.058.017-.059.016-.058.017-.058.017-.059.018-.058.018-.058.019-.059.018-.058.02-.058.02-.058.02-.059.02-.058.021-.058.021-.059.022-.058.022-.058.023-.059.024-.058.023-.058.025-.059.025-.058.025-.058.026-.059.026-.058.027-.058.028-.058.028-.059.029-.058.03-.058.03-.059.03-.058.032-.058.032-.059.033-.058.034-.058.035-.059.035-.058.036-.058.037-.059.038-.058.039-.058.04a6.873 6.873 0 0 0-.117.082l-.058.043a6.145 6.145 0 0 0-.175.136z"/></g></svg>