<svg width="30" height="20" fill="none" xmlns="http://www.w3.org/2000/svg"><path fill="#fff" d="M0 0h30v20H0z"/><g clip-path="url(#a)"><path d="M23 2H7v16h16V2z" fill="#fff"/><path d="m11.978 17.958.287-1.819-.638-.014H8.582l2.116-13.418a.173.173 0 0 1 .172-.146h5.134c1.705 0 2.88.354 3.495 1.054.288.329.471.672.56 1.05.093.396.095.87.004 1.447l-.007.042v.37l.288.163c.22.111.418.262.583.445.246.28.406.637.473 1.06.07.435.047.953-.067 1.54-.132.674-.344 1.261-.63 1.742-.254.43-.594.803-1 1.094a4.04 4.04 0 0 1-1.345.607 6.708 6.708 0 0 1-1.682.195h-.4a1.21 1.21 0 0 0-.78.287 1.21 1.21 0 0 0-.408.727l-.03.164-.505 3.204-.023.118c-.006.037-.017.056-.032.069a.086.086 0 0 1-.053.019h-2.467z" fill="#253B80"/><path d="M20.615 6.197a8.924 8.924 0 0 1-.053.301c-.677 3.477-2.993 4.677-5.952 4.677h-1.506a.731.731 0 0 0-.723.62l-.771 4.891-.218 1.387a.386.386 0 0 0 .38.445h2.671c.317 0 .586-.23.635-.542l.027-.135.503-3.193.032-.175a.643.643 0 0 1 .635-.543h.4c2.588 0 4.614-1.05 5.206-4.092.248-1.27.12-2.33-.535-3.077a2.555 2.555 0 0 0-.731-.564z" fill="#179BD7"/><path d="M19.908 5.913a5.339 5.339 0 0 0-.658-.146c-.44-.068-.884-.1-1.328-.097h-4.024a.641.641 0 0 0-.634.543l-.857 5.422-.024.158a.731.731 0 0 1 .723-.62h1.506c2.959 0 5.275-1.2 5.952-4.676.02-.103.037-.203.053-.301a3.611 3.611 0 0 0-.709-.283z" fill="#222D65"/><path d="M13.262 6.214a.64.64 0 0 1 .635-.542h4.024c.477 0 .922.03 1.328.097.274.043.546.107.81.193.2.066.386.144.557.235.201-1.285-.002-2.16-.696-2.952C19.154 2.373 17.772 2 16.003 2H10.87a.734.734 0 0 0-.725.62l-2.14 13.555a.441.441 0 0 0 .436.51h3.17l.795-5.049.856-5.422z" fill="#253B80"/></g><defs><clipPath id="a"><path fill="#fff" transform="translate(7 2)" d="M0 0h16v16H0z"/></clipPath></defs></svg>