<svg xmlns="http://www.w3.org/2000/svg" viewBox="0 0 100 60"><g fill="none" fill-rule="evenodd"><path fill="#FFF" d="M0 0h100v60H0z"/><g fill-rule="nonzero"><path fill="#E21836" d="M32.751 13h13.703c1.912 0 3.102 1.542 2.656 3.44l-6.38 27.091c-.45 1.892-2.365 3.435-4.28 3.435h-13.7c-1.91 0-3.103-1.543-2.656-3.435l6.382-27.09c.446-1.899 2.36-3.44 4.275-3.44"/><path fill="#00447C" d="M45.313 13h15.758c1.912 0 1.05 1.542.6 3.44l-6.378 27.091c-.448 1.892-.308 3.435-2.225 3.435H37.311c-1.917 0-3.103-1.543-2.652-3.435l6.378-27.09C41.49 14.541 43.4 13 45.313 13"/><path fill="#007B84" d="M60.446 13h13.702c1.916 0 3.105 1.542 2.655 3.44l-6.378 27.091c-.45 1.892-2.367 3.435-4.282 3.435H52.447c-1.916 0-3.105-1.543-2.656-3.435l6.38-27.09c.446-1.899 2.358-3.44 4.275-3.44"/><path fill="#FEFEFE" d="M36.33 21.682c-1.41.014-1.826 0-1.958-.031-.052.24-1.002 4.578-1.005 4.582-.205.878-.354 1.503-.86 1.907a1.542 1.542 0 0 1-1.011.349c-.625 0-.989-.307-1.05-.89l-.012-.2.19-1.181s.999-3.954 1.177-4.477a.377.377 0 0 0 .015-.06c-1.943.018-2.287 0-2.31-.03-.014.042-.062.288-.062.288l-1.02 4.456-.087.378-.169 1.236c0 .366.073.666.218.919.464.802 1.788.922 2.537.922.966 0 1.871-.203 2.483-.573 1.062-.62 1.34-1.59 1.588-2.453l.115-.442s1.028-4.106 1.202-4.64c.007-.03.01-.046.019-.06zm3.497 3.312c-.247 0-.7.06-1.107.257-.148.075-.287.162-.435.248l.133-.475-.072-.08c-.863.173-1.056.196-1.853.307l-.067.044c-.092.759-.175 1.33-.518 2.82a159.2 159.2 0 0 1-.402 1.654l.037.07a20.036 20.036 0 0 1 1.774-.032l.058-.061c.09-.457.102-.564.301-1.49.094-.438.29-1.402.386-1.745.178-.082.353-.162.52-.162.397 0 .349.344.334.48-.017.23-.162.98-.31 1.624l-.1.415c-.07.307-.145.606-.214.91l.03.06c.805-.042 1.05-.042 1.738-.03l.08-.062c.125-.714.161-.905.381-1.944l.111-.477c.216-.934.324-1.408.161-1.794-.172-.432-.586-.537-.966-.537zm3.908.979c-.428.08-.7.135-.972.17-.269.043-.531.081-.945.138l-.032.03-.03.023c-.043.304-.074.568-.13.877-.05.32-.124.684-.245 1.207a4.7 4.7 0 0 1-.195.68c-.053.14-.11.277-.216.67l.025.037.02.034c.387-.019.64-.032.9-.034.26-.01.528 0 .944.002l.037-.029.039-.032c.06-.355.07-.45.106-.624.036-.185.099-.442.253-1.129.073-.322.154-.644.23-.973.078-.327.16-.65.238-.972l-.011-.04-.016-.035zm.009-1.32c-.389-.226-1.071-.154-1.53.16-.458.307-.51.743-.123.972.382.221 1.067.155 1.522-.16.457-.315.514-.747.13-.971zm2.351 5.257c.787 0 1.593-.215 2.2-.851.467-.516.68-1.284.755-1.6.241-1.048.053-1.537-.183-1.835-.359-.454-.992-.6-1.65-.6-.396 0-1.337.039-2.073.71-.529.484-.773 1.14-.92 1.77-.149.642-.32 1.796.754 2.226.331.141.81.18 1.117.18zm-.061-2.358c.18-.794.395-1.46.941-1.46.429 0 .46.496.27 1.292-.035.177-.191.834-.403 1.114-.147.206-.322.331-.515.331-.057 0-.399 0-.404-.501-.003-.248.048-.501.11-.776zm4.982 2.256.061-.062c.088-.457.102-.564.295-1.49.097-.438.296-1.402.39-1.745.178-.082.35-.162.522-.162.395 0 .347.343.331.48-.014.23-.159.98-.31 1.624l-.094.415c-.072.307-.15.605-.22.91l.03.06a19.232 19.232 0 0 1 1.736-.03l.083-.062c.122-.714.154-.905.382-1.944l.108-.477c.216-.934.326-1.408.165-1.794-.177-.432-.593-.536-.967-.536a2.73 2.73 0 0 0-1.108.256c-.145.075-.29.161-.432.248l.124-.475-.067-.08c-.862.173-1.06.196-1.855.307l-.061.044c-.097.759-.175 1.33-.518 2.82-.13.55-.266 1.106-.402 1.654l.037.07a19.97 19.97 0 0 1 1.77-.031zm5.933.03c.051-.245.353-1.697.355-1.697 0 0 .257-1.066.273-1.105 0 0 .08-.111.162-.155h.119c1.121 0 2.388 0 3.381-.723.676-.495 1.138-1.227 1.344-2.116.053-.218.093-.477.093-.737 0-.34-.07-.677-.27-.94-.506-.701-1.514-.714-2.678-.72l-.574.006c-1.49.018-2.087.013-2.333-.017-.02.107-.06.298-.06.298l-.533 2.45-1.337 5.448c1.3-.016 1.834-.016 2.058.008zm.99-4.346.564-2.432.018-.125.008-.095.227.023 1.198.102c.462.176.652.632.52 1.227-.122.543-.478 1-.936 1.22-.377.188-.84.203-1.315.203h-.308l.023-.123zm3.532 2.105c-.15.632-.322 1.787.746 2.199.341.143.646.186.957.17.327-.017.63-.18.912-.414l-.076.29.048.061a28.76 28.76 0 0 1 1.84-.026l.075-.057c.122-.707.237-1.393.553-2.745.154-.648.307-1.29.465-1.935l-.025-.07c-.86.157-1.089.19-1.916.306l-.063.05-.025.193a1.179 1.179 0 0 0-.602-.49c-.368-.143-1.232.04-1.974.71-.522.477-.772 1.13-.915 1.758zm1.806.039c.184-.78.395-1.439.943-1.439.346 0 .529.316.492.855-.03.135-.061.277-.1.437-.054.231-.113.461-.171.69a1.669 1.669 0 0 1-.203.405c-.14.198-.476.32-.669.32-.055 0-.393 0-.404-.493-.003-.245.048-.498.112-.775zm9.428-2.573-.066-.075c-.85.17-1.005.197-1.786.302l-.058.057-.009.036-.002-.013c-.582 1.328-.565 1.041-1.039 2.086-.002-.047-.002-.077-.005-.127l-.119-2.266-.074-.075c-.891.17-.912.197-1.735.302l-.064.057c-.01.027-.01.056-.015.089l.006.011c.103.52.078.404.181 1.225.048.403.112.808.16 1.205.082.666.127.994.226 2.01-.556.907-.687 1.25-1.222 2.046l.003.008-.376.59c-.043.061-.082.104-.137.122a.574.574 0 0 1-.247.035h-.209l-.31 1.02 1.064.019c.625-.003 1.018-.292 1.23-.68l.669-1.135h-.01l.07-.08c.45-.958 3.874-6.77 3.874-6.77zM61.471 38.469h-.451L62.69 33h.554l.176-.563.018.626c-.021.388.287.73 1.096.674h.935l.322-1.053h-.352c-.202 0-.296-.05-.284-.159l-.018-.637h-1.732v.003c-.56.012-2.233.054-2.571.143-.41.104-.842.411-.842.411l.17-.563h-1.62L58.204 33l-1.694 5.551h-.329l-.322 1.046h3.228l-.109.348h1.59l.106-.348h.447l.35-1.13zm-1.324-4.357c-.26.071-.742.287-.742.287l.43-1.398h1.287l-.311 1.019s-.398.023-.664.092zm.025 1.997s-.405.05-.67.11c-.263.078-.755.326-.755.326l.444-1.455h1.294l-.313 1.019zm-.722 2.373h-1.29l.374-1.227h1.288l-.37 1.227zm3.11-3.392h1.862l-.267.857h-1.887l-.283.937h1.65l-1.249 1.74a.514.514 0 0 1-.253.21.748.748 0 0 1-.336.095h-.457l-.315 1.026h1.198c.622 0 .99-.28 1.261-.647l.857-1.16.184 1.177c.04.221.2.35.308.4.12.06.244.162.42.177.187.008.323.014.413.014h.588l.354-1.148h-.233c-.133 0-.362-.022-.401-.063-.04-.05-.04-.128-.06-.245l-.187-1.181h-.765l.336-.395h1.882l.29-.937h-1.743l.271-.857h1.738l.322-1.056h-5.18l-.317 1.056zm-15.723 3.63.435-1.43h1.786l.326-1.063h-1.788l.273-.88h1.747l.324-1.03h-4.37l-.318 1.03h.993l-.265.88h-.995l-.33 1.082h.992l-.579 1.891c-.078.25.037.346.11.463.074.113.15.188.32.23.174.04.294.062.457.062h2.013l.36-1.178-.893.121c-.173 0-.65-.02-.598-.178zm.205-6.844-.453.81c-.096.176-.184.286-.262.336-.07.043-.206.06-.404.06h-.237l-.315 1.035h.784c.377 0 .667-.136.805-.205.149-.078.188-.033.302-.143l.265-.227h2.45l.324-1.078H48.51l.313-.588h-1.78zm3.615 6.865c-.042-.06-.011-.164.052-.382l.67-2.191h2.38c.348-.005.598-.01.761-.02.175-.019.365-.08.573-.192.214-.116.324-.238.416-.38.103-.14.269-.447.411-.92l.841-2.773-2.47.014s-.761.11-1.096.233c-.338.137-.821.519-.821.519l.223-.76h-1.526l-2.137 7.01c-.076.272-.127.47-.138.588-.004.128.163.254.27.35.129.095.318.08.5.095.19.014.461.023.835.023h1.173l.36-1.202-1.05.098a.277.277 0 0 1-.227-.11zm1.153-4.053h2.501l-.159.493c-.022.011-.075-.025-.33.005h-2.165l.153-.498zm.501-1.653h2.522l-.181.593s-1.189-.011-1.379.024c-.838.143-1.327.586-1.327.586l.365-1.203zm1.897 3.796a.264.264 0 0 1-.099.153c-.05.032-.133.043-.255.043h-.357l.021-.6h-1.482l-.06 2.935c-.002.211.018.334.175.432.157.123.64.138 1.289.138h.929l.335-1.098-.809.044-.268.015a.306.306 0 0 1-.111-.068c-.034-.034-.092-.013-.082-.225l.006-.752.848-.035c.458 0 .653-.147.82-.287.16-.135.212-.29.272-.499l.142-.666h-1.165l-.149.47z"/></g></g></svg>